<svg width="32" height="32" viewBox="0 0 32 32" fill="none" xmlns="http://www.w3.org/2000/svg">
<path d="M22 11C22 11.7879 21.8448 12.5681 21.5433 13.2961C21.2417 14.0241 20.7998 14.6855 20.2426 15.2426C19.6855 15.7998 19.0241 16.2417 18.2961 16.5433C17.5681 16.8448 16.7879 17 16 17C15.2121 17 14.4319 16.8448 13.7039 16.5433C12.9759 16.2417 12.3145 15.7998 11.7574 15.2426C11.2002 14.6855 10.7583 14.0241 10.4567 13.2961C10.1552 12.5681 10 11.7879 10 11C10 10.2121 10.1552 9.43185 10.4567 8.7039C10.7583 7.97595 11.2002 7.31451 11.7574 6.75736C12.3145 6.20021 12.9759 5.75825 13.7039 5.45672C14.4319 5.15519 15.2121 5 16 5C16.7879 5 17.5681 5.15519 18.2961 5.45672C19.0241 5.75825 19.6855 6.20021 20.2426 6.75736C20.7998 7.31451 21.2417 7.97595 21.5433 8.7039C21.8448 9.43185 22 10.2121 22 11L22 11Z" stroke="white" stroke-width="2"/>
<path fill-rule="evenodd" clip-rule="evenodd" d="M12.9048 22.5143C13.916 22.0955 14.9998 21.8799 16.0942 21.8799C17.1887 21.8799 18.2725 22.0955 19.2836 22.5143C20.2948 22.9331 21.2136 23.547 21.9875 24.3209C22.7614 25.0949 23.3753 26.0136 23.7941 27.0248C23.926 27.3432 24.0378 27.6688 24.1289 27.9997H26.1885C26.0582 27.406 25.8756 26.8236 25.6419 26.2594C25.1225 25.0056 24.3613 23.8664 23.4017 22.9067C22.4421 21.9471 21.3028 21.1859 20.049 20.6665C18.7952 20.1472 17.4514 19.8799 16.0942 19.8799C14.7371 19.8799 13.3933 20.1472 12.1395 20.6665C10.8857 21.1859 9.74642 21.9471 8.78679 22.9067C7.82716 23.8664 7.06595 25.0056 6.5466 26.2594C6.3129 26.8236 6.13024 27.406 6 27.9997H8.05953C8.15073 27.6688 8.26247 27.3432 8.39436 27.0248C8.81319 26.0136 9.42709 25.0949 10.201 24.3209C10.9749 23.547 11.8937 22.9331 12.9048 22.5143Z" fill="white"/>
</svg>
