<svg width="242" height="31" viewBox="0 0 242 31" fill="none" xmlns="http://www.w3.org/2000/svg">
<path fill-rule="evenodd" clip-rule="evenodd" d="M27.8465 15.3973C27.8465 10.9047 24.2102 7.2627 19.7246 7.2627L8.1219 7.2627C3.6363 7.2627 1.96072e-07 10.9047 0 15.3973C-1.96072e-07 19.89 3.6363 23.532 8.1219 23.532H19.7246C24.2102 23.532 27.8465 19.89 27.8465 15.3973ZM13.9233 15.3973C13.9233 18.6064 16.5206 21.2078 19.7246 21.2078C22.9286 21.2078 25.526 18.6064 25.526 15.3973C25.526 12.1883 22.9286 9.58688 19.7246 9.58688C16.5206 9.58688 13.9233 12.1883 13.9233 15.3973Z" fill="white"/>
<path fill-rule="evenodd" clip-rule="evenodd" d="M54.1913 0V23.5324H57.4493V14.1822C57.4493 12.969 57.8774 11.9545 58.7337 11.1387C59.6109 10.3229 60.6865 9.91498 61.9604 9.91498C63.1926 9.91498 64.216 10.3229 65.0305 11.1387C65.845 11.9126 66.2523 12.9167 66.2523 14.1508V23.5324H69.5103V13.2095C69.5103 11.3897 68.8838 9.86269 67.6307 8.62854C66.3985 7.41532 64.8217 6.8087 62.9003 6.8087C60.4985 6.8087 58.6815 7.73954 57.4493 9.60122V0H54.1913ZM48.0589 12.9271L51.3483 11.9545C50.7009 10.3856 49.6671 9.14103 48.2469 8.22065C46.8476 7.27935 45.2395 6.8087 43.4225 6.8087C40.9789 6.8087 38.9427 7.62449 37.3137 9.25607C35.6846 10.8877 34.8701 12.9271 34.8701 15.3745C34.8701 17.8219 35.6846 19.8613 37.3137 21.4929C38.9427 23.1245 40.9789 23.9403 43.4225 23.9403C45.2395 23.9403 46.8476 23.4801 48.2469 22.5597C49.6671 21.6184 50.7009 20.3634 51.3483 18.7945L48.0589 17.8219C47.6412 18.7004 47.0251 19.4011 46.2106 19.9241C45.3961 20.4261 44.4667 20.6771 43.4225 20.6771C41.9605 20.6771 40.7283 20.1751 39.7259 19.1711C38.7443 18.1252 38.2535 16.8596 38.2535 15.3745C38.2535 13.8893 38.7443 12.6343 39.7259 11.6093C40.7283 10.5843 41.9605 10.0719 43.4225 10.0719C44.4667 10.0719 45.3961 10.3333 46.2106 10.8563C47.0251 11.3583 47.6412 12.0486 48.0589 12.9271ZM89.538 16.5668H76.0046C76.2553 17.8428 76.8714 18.8887 77.8529 19.7045C78.8554 20.4993 80.0354 20.8968 81.3929 20.8968C83.2308 20.8968 84.6719 20.2169 85.7161 18.8573L88.9115 19.83C88.1596 21.1059 87.1154 22.11 85.7788 22.8421C84.463 23.5742 83.0011 23.9403 81.3929 23.9403C78.8867 23.9403 76.8087 23.1245 75.1588 21.4929C73.488 19.8613 72.6526 17.8219 72.6526 15.3745C72.6526 12.948 73.4567 10.9086 75.0648 9.25607C76.6938 7.62449 78.7197 6.8087 81.1423 6.8087C83.565 6.8087 85.5699 7.62449 87.1572 9.25607C88.7862 10.8877 89.6007 12.9271 89.6007 15.3745C89.6007 15.4582 89.5798 15.8556 89.538 16.5668ZM76.036 13.9626H86.2487C85.9563 12.7493 85.3297 11.7662 84.369 11.0132C83.4083 10.2392 82.3014 9.85223 81.0483 9.85223C79.8579 9.85223 78.7928 10.2392 77.8529 11.0132C76.934 11.7662 76.3284 12.7493 76.036 13.9626ZM104.962 12.9271L108.251 11.9545C107.604 10.3856 106.57 9.14103 105.15 8.22065C103.751 7.27935 102.143 6.8087 100.326 6.8087C97.8821 6.8087 95.8459 7.62449 94.2168 9.25607C92.5878 10.8877 91.7733 12.9271 91.7733 15.3745C91.7733 17.8219 92.5878 19.8613 94.2168 21.4929C95.8459 23.1245 97.8821 23.9403 100.326 23.9403C102.143 23.9403 103.751 23.4801 105.15 22.5597C106.57 21.6184 107.604 20.3634 108.251 18.7945L104.962 17.8219C104.544 18.7004 103.928 19.4011 103.114 19.9241C102.299 20.4261 101.37 20.6771 100.326 20.6771C98.8637 20.6771 97.6315 20.1751 96.629 19.1711C95.6474 18.1252 95.1567 16.8596 95.1567 15.3745C95.1567 13.8893 95.6474 12.6343 96.629 11.6093C97.6315 10.5843 98.8637 10.0719 100.326 10.0719C101.37 10.0719 102.299 10.3333 103.114 10.8563C103.928 11.3583 104.544 12.0486 104.962 12.9271ZM111.094 23.5324V0H114.352V14.747L120.493 7.2166H124.471L118.08 15.0921L125.16 23.5324H121.151L114.352 15.4372V23.5324H111.094Z" fill="white"/>
<path fill-rule="evenodd" clip-rule="evenodd" d="M127.553 0V23.5324H130.811V21.7753C132.314 23.2186 134.121 23.9403 136.23 23.9403C138.507 23.9403 140.418 23.1245 141.963 21.4929C143.488 19.8823 144.25 17.8428 144.25 15.3745C144.25 12.9062 143.488 10.8667 141.963 9.25607C140.418 7.62449 138.507 6.8087 136.23 6.8087C134.121 6.8087 132.314 7.53036 130.811 8.97368V0H127.553ZM132.314 11.6093C133.275 10.5843 134.455 10.0719 135.854 10.0719C137.275 10.0719 138.465 10.5843 139.426 11.6093C140.387 12.5924 140.867 13.8475 140.867 15.3745C140.867 16.8806 140.387 18.1461 139.426 19.1711C138.444 20.1751 137.254 20.6771 135.854 20.6771C134.455 20.6771 133.275 20.1751 132.314 19.1711C131.354 18.1461 130.873 16.8806 130.873 15.3745C130.873 13.8475 131.354 12.5924 132.314 11.6093ZM150.666 23.5324H147.408V0H150.666V23.5324ZM156.259 21.4929C157.888 23.1245 159.924 23.9403 162.368 23.9403C164.811 23.9403 166.847 23.1245 168.477 21.4929C170.126 19.8613 170.951 17.8219 170.951 15.3745C170.951 12.9271 170.126 10.8877 168.477 9.25607C166.847 7.62449 164.811 6.8087 162.368 6.8087C159.924 6.8087 157.888 7.62449 156.259 9.25607C154.63 10.8877 153.815 12.9271 153.815 15.3745C153.815 17.8219 154.63 19.8613 156.259 21.4929ZM166.064 19.1711C165.104 20.1751 163.871 20.6771 162.368 20.6771C160.906 20.6771 159.674 20.1751 158.671 19.1711C157.689 18.1252 157.199 16.8596 157.199 15.3745C157.199 13.8893 157.689 12.6343 158.671 11.6093C159.674 10.5843 160.906 10.0719 162.368 10.0719C163.871 10.0719 165.104 10.5843 166.064 11.6093C167.067 12.6134 167.568 13.8684 167.568 15.3745C167.568 16.8806 167.067 18.1461 166.064 19.1711ZM181.415 6.8087C183.524 6.8087 185.331 7.53036 186.834 8.97368V7.2166H190.092V22.9676C190.092 25.2476 189.299 27.1511 187.712 28.6781C186.124 30.226 184.203 31 181.947 31C180.276 31 178.71 30.5712 177.248 29.7136C175.828 28.8769 174.815 27.7787 174.209 26.419L177.499 25.4464C177.854 26.1157 178.428 26.6596 179.222 27.0779C180.015 27.5172 180.882 27.7368 181.822 27.7368C183.221 27.7368 184.412 27.2767 185.393 26.3563C186.354 25.4568 186.834 24.3273 186.834 22.9676V21.7753C185.331 23.2186 183.524 23.9403 181.415 23.9403C179.138 23.9403 177.227 23.1245 175.682 21.4929C174.157 19.8823 173.395 17.8428 173.395 15.3745C173.395 12.9062 174.157 10.8667 175.682 9.25607C177.227 7.62449 179.138 6.8087 181.415 6.8087ZM181.759 10.0719C180.36 10.0719 179.18 10.5843 178.219 11.6093C177.259 12.5924 176.778 13.8475 176.778 15.3745C176.778 16.8806 177.259 18.1461 178.219 19.1711C179.201 20.1751 180.381 20.6771 181.759 20.6771C183.179 20.6771 184.37 20.1751 185.331 19.1711C186.291 18.1461 186.772 16.8806 186.772 15.3745C186.772 13.8475 186.291 12.5924 185.331 11.6093C184.37 10.5843 183.179 10.0719 181.759 10.0719ZM206.689 8.97368C205.186 7.53036 203.379 6.8087 201.27 6.8087C198.993 6.8087 197.082 7.62449 195.537 9.25607C194.012 10.8667 193.25 12.9062 193.25 15.3745C193.25 17.8428 194.012 19.8823 195.537 21.4929C197.082 23.1245 198.993 23.9403 201.27 23.9403C203.379 23.9403 205.186 23.2186 206.689 21.7753V22.9676C206.689 24.3273 206.209 25.4568 205.248 26.3563C204.267 27.2767 203.076 27.7368 201.677 27.7368C200.737 27.7368 199.87 27.5172 199.077 27.0779C198.283 26.6596 197.709 26.1157 197.354 25.4464L194.064 26.419C194.67 27.7787 195.683 28.8769 197.103 29.7136C198.565 30.5712 200.131 31 201.802 31C204.058 31 205.979 30.226 207.566 28.6781C209.154 27.1511 209.947 25.2476 209.947 22.9676V7.2166H206.689V8.97368ZM198.074 11.6093C199.035 10.5843 200.215 10.0719 201.614 10.0719C203.034 10.0719 204.225 10.5843 205.186 11.6093C206.146 12.5924 206.627 13.8475 206.627 15.3745C206.627 16.8806 206.146 18.1461 205.186 19.1711C204.225 20.1751 203.034 20.6771 201.614 20.6771C200.236 20.6771 199.056 20.1751 198.074 19.1711C197.114 18.1461 196.633 16.8806 196.633 15.3745C196.633 13.8475 197.114 12.5924 198.074 11.6093ZM229.99 16.5668H216.457C216.707 17.8428 217.324 18.8887 218.305 19.7045C219.308 20.4993 220.488 20.8968 221.845 20.8968C223.683 20.8968 225.124 20.2169 226.168 18.8573L229.364 19.83C228.612 21.1059 227.568 22.11 226.231 22.8421C224.915 23.5742 223.453 23.9403 221.845 23.9403C219.339 23.9403 217.261 23.1245 215.611 21.4929C213.94 19.8613 213.105 17.8219 213.105 15.3745C213.105 12.948 213.909 10.9086 215.517 9.25607C217.146 7.62449 219.172 6.8087 221.594 6.8087C224.017 6.8087 226.022 7.62449 227.609 9.25607C229.238 10.8877 230.053 12.9271 230.053 15.3745C230.053 15.4582 230.032 15.8556 229.99 16.5668ZM216.488 13.9626H226.701C226.408 12.7493 225.782 11.7662 224.821 11.0132C223.86 10.2392 222.754 9.85223 221.5 9.85223C220.31 9.85223 219.245 10.2392 218.305 11.0132C217.386 11.7662 216.781 12.7493 216.488 13.9626ZM236.204 9.60122V7.2166H232.946V23.5324H236.204V14.4332C236.204 13.1991 236.622 12.195 237.457 11.4211C238.293 10.6053 239.337 10.1974 240.59 10.1974C241.154 10.1974 241.624 10.281 242 10.4484V6.8087C239.368 6.8087 237.436 7.73954 236.204 9.60122Z" fill="white"/>
</svg>
