<svg width="242" height="39" viewBox="0 0 302 39" fill="none" xmlns="http://www.w3.org/2000/svg">
<path fill-rule="evenodd" clip-rule="evenodd" d="M34.7506 19.3712C34.7506 13.7192 30.2128 9.13727 24.615 9.13727L10.1356 9.13727C4.53786 9.13727 2.44685e-07 13.7191 0 19.3712C-2.44685e-07 25.0232 4.53786 29.6051 10.1356 29.6051H24.615C30.2128 29.6051 34.7506 25.0232 34.7506 19.3712ZM17.3753 19.3712C17.3753 23.4084 20.6166 26.6811 24.615 26.6811C28.6134 26.6811 31.8547 23.4084 31.8547 19.3712C31.8547 15.334 28.6134 12.0612 24.615 12.0612C20.6166 12.0612 17.3753 15.334 17.3753 19.3712Z" fill="#DB84A4"/>
<path fill-rule="evenodd" clip-rule="evenodd" d="M67.6267 0V29.6053H71.6925V17.8421C71.6925 16.3158 72.2268 15.0395 73.2954 14.0132C74.39 12.9868 75.7323 12.4737 77.3221 12.4737C78.8598 12.4737 80.1369 12.9868 81.1534 14.0132C82.1698 14.9868 82.678 16.25 82.678 17.8026V29.6053H86.7439V16.6184C86.7439 14.3289 85.962 12.4079 84.3982 10.8553C82.8605 9.32895 80.8927 8.56579 78.4949 8.56579C75.4977 8.56579 73.2302 9.73684 71.6925 12.0789V0H67.6267ZM59.9739 16.2632L64.0788 15.0395C63.2709 13.0658 61.9808 11.5 60.2085 10.3421C58.4623 9.1579 56.4554 8.56579 54.188 8.56579C51.1386 8.56579 48.5974 9.5921 46.5645 11.6447C44.5316 13.6974 43.5152 16.2632 43.5152 19.3421C43.5152 22.4211 44.5316 24.9868 46.5645 27.0395C48.5974 29.0921 51.1386 30.1184 54.188 30.1184C56.4554 30.1184 58.4623 29.5395 60.2085 28.3816C61.9808 27.1974 63.2709 25.6184 64.0788 23.6447L59.9739 22.4211C59.4527 23.5263 58.6838 24.4079 57.6674 25.0658C56.6509 25.6974 55.4911 26.0132 54.188 26.0132C52.3635 26.0132 50.8258 25.3816 49.5748 24.1184C48.3498 22.8026 47.7374 21.2105 47.7374 19.3421C47.7374 17.4737 48.3498 15.8947 49.5748 14.6053C50.8258 13.3158 52.3635 12.6711 54.188 12.6711C55.4911 12.6711 56.6509 13 57.6674 13.6579C58.6838 14.2895 59.4527 15.1579 59.9739 16.2632ZM111.737 20.8421H94.8483C95.1611 22.4474 95.9299 23.7632 97.1549 24.7895C98.4059 25.7895 99.8785 26.2895 101.573 26.2895C103.866 26.2895 105.664 25.4342 106.968 23.7237L110.955 24.9474C110.017 26.5526 108.714 27.8158 107.046 28.7368C105.404 29.6579 103.579 30.1184 101.573 30.1184C98.445 30.1184 95.8517 29.0921 93.7928 27.0395C91.7077 24.9868 90.6652 22.4211 90.6652 19.3421C90.6652 16.2895 91.6686 13.7237 93.6755 11.6447C95.7084 9.5921 98.2365 8.56579 101.26 8.56579C104.283 8.56579 106.785 9.5921 108.766 11.6447C110.799 13.6974 111.815 16.2632 111.815 19.3421C111.815 19.4474 111.789 19.9474 111.737 20.8421ZM94.8874 17.5658H107.632C107.267 16.0395 106.485 14.8026 105.287 13.8553C104.088 12.8816 102.706 12.3947 101.143 12.3947C99.6569 12.3947 98.3277 12.8816 97.1549 13.8553C96.0081 14.8026 95.2523 16.0395 94.8874 17.5658ZM130.985 16.2632L135.09 15.0395C134.282 13.0658 132.992 11.5 131.22 10.3421C129.474 9.1579 127.467 8.56579 125.199 8.56579C122.15 8.56579 119.609 9.5921 117.576 11.6447C115.543 13.6974 114.527 16.2632 114.527 19.3421C114.527 22.4211 115.543 24.9868 117.576 27.0395C119.609 29.0921 122.15 30.1184 125.199 30.1184C127.467 30.1184 129.474 29.5395 131.22 28.3816C132.992 27.1974 134.282 25.6184 135.09 23.6447L130.985 22.4211C130.464 23.5263 129.695 24.4079 128.679 25.0658C127.662 25.6974 126.503 26.0132 125.199 26.0132C123.375 26.0132 121.837 25.3816 120.586 24.1184C119.361 22.8026 118.749 21.2105 118.749 19.3421C118.749 17.4737 119.361 15.8947 120.586 14.6053C121.837 13.3158 123.375 12.6711 125.199 12.6711C126.503 12.6711 127.662 13 128.679 13.6579C129.695 14.2895 130.464 15.1579 130.985 16.2632ZM138.638 29.6053V0H142.704V18.5526L150.366 9.07895H155.331L147.356 18.9868L156.191 29.6053H151.187L142.704 19.4211V29.6053H138.638Z" fill="#313438"/>
<path fill-rule="evenodd" clip-rule="evenodd" d="M159.178 0V29.6053H163.244V27.3947C165.12 29.2105 167.375 30.1184 170.007 30.1184C172.848 30.1184 175.233 29.0921 177.161 27.0395C179.064 25.0132 180.015 22.4474 180.015 19.3421C180.015 16.2368 179.064 13.6711 177.161 11.6447C175.233 9.5921 172.848 8.56579 170.007 8.56579C167.375 8.56579 165.12 9.47368 163.244 11.2895V0H159.178ZM165.12 14.6053C166.319 13.3158 167.792 12.6711 169.538 12.6711C171.31 12.6711 172.796 13.3158 173.995 14.6053C175.194 15.8421 175.793 17.4211 175.793 19.3421C175.793 21.2368 175.194 22.8289 173.995 24.1184C172.77 25.3816 171.284 26.0132 169.538 26.0132C167.792 26.0132 166.319 25.3816 165.12 24.1184C163.921 22.8289 163.322 21.2368 163.322 19.3421C163.322 17.4211 163.921 15.8421 165.12 14.6053ZM188.021 29.6053H183.956V0H188.021V29.6053ZM195.001 27.0395C197.034 29.0921 199.575 30.1184 202.625 30.1184C205.674 30.1184 208.215 29.0921 210.248 27.0395C212.307 24.9868 213.337 22.4211 213.337 19.3421C213.337 16.2632 212.307 13.6974 210.248 11.6447C208.215 9.5921 205.674 8.56579 202.625 8.56579C199.575 8.56579 197.034 9.5921 195.001 11.6447C192.968 13.6974 191.952 16.2632 191.952 19.3421C191.952 22.4211 192.968 24.9868 195.001 27.0395ZM207.238 24.1184C206.039 25.3816 204.501 26.0132 202.625 26.0132C200.8 26.0132 199.263 25.3816 198.012 24.1184C196.787 22.8026 196.174 21.2105 196.174 19.3421C196.174 17.4737 196.787 15.8947 198.012 14.6053C199.263 13.3158 200.8 12.6711 202.625 12.6711C204.501 12.6711 206.039 13.3158 207.238 14.6053C208.489 15.8684 209.114 17.4474 209.114 19.3421C209.114 21.2368 208.489 22.8289 207.238 24.1184ZM226.394 8.56579C229.027 8.56579 231.281 9.47368 233.158 11.2895V9.07895H237.223V28.8947C237.223 31.7632 236.233 34.1579 234.252 36.0789C232.271 38.0263 229.874 39 227.059 39C224.974 39 223.019 38.4605 221.195 37.3816C219.422 36.3289 218.158 34.9474 217.402 33.2368L221.507 32.0132C221.95 32.8553 222.667 33.5395 223.658 34.0658C224.648 34.6184 225.73 34.8947 226.902 34.8947C228.649 34.8947 230.134 34.3158 231.359 33.1579C232.558 32.0263 233.158 30.6053 233.158 28.8947V27.3947C231.281 29.2105 229.027 30.1184 226.394 30.1184C223.553 30.1184 221.169 29.0921 219.24 27.0395C217.337 25.0132 216.386 22.4474 216.386 19.3421C216.386 16.2368 217.337 13.6711 219.24 11.6447C221.169 9.5921 223.553 8.56579 226.394 8.56579ZM226.824 12.6711C225.078 12.6711 223.605 13.3158 222.407 14.6053C221.208 15.8421 220.608 17.4211 220.608 19.3421C220.608 21.2368 221.208 22.8289 222.407 24.1184C223.632 25.3816 225.104 26.0132 226.824 26.0132C228.597 26.0132 230.082 25.3816 231.281 24.1184C232.48 22.8289 233.079 21.2368 233.079 19.3421C233.079 17.4211 232.48 15.8421 231.281 14.6053C230.082 13.3158 228.597 12.6711 226.824 12.6711ZM257.935 11.2895C256.059 9.47368 253.804 8.56579 251.172 8.56579C248.331 8.56579 245.946 9.5921 244.018 11.6447C242.115 13.6711 241.164 16.2368 241.164 19.3421C241.164 22.4474 242.115 25.0132 244.018 27.0395C245.946 29.0921 248.331 30.1184 251.172 30.1184C253.804 30.1184 256.059 29.2105 257.935 27.3947V28.8947C257.935 30.6053 257.336 32.0263 256.137 33.1579C254.912 34.3158 253.426 34.8947 251.68 34.8947C250.507 34.8947 249.426 34.6184 248.435 34.0658C247.445 33.5395 246.728 32.8553 246.285 32.0132L242.18 33.2368C242.936 34.9474 244.2 36.3289 245.972 37.3816C247.797 38.4605 249.751 39 251.836 39C254.651 39 257.049 38.0263 259.03 36.0789C261.011 34.1579 262.001 31.7632 262.001 28.8947V9.07895H257.935V11.2895ZM247.184 14.6053C248.383 13.3158 249.856 12.6711 251.602 12.6711C253.374 12.6711 254.86 13.3158 256.059 14.6053C257.258 15.8421 257.857 17.4211 257.857 19.3421C257.857 21.2368 257.258 22.8289 256.059 24.1184C254.86 25.3816 253.374 26.0132 251.602 26.0132C249.882 26.0132 248.409 25.3816 247.184 24.1184C245.985 22.8289 245.386 21.2368 245.386 19.3421C245.386 17.4211 245.985 15.8421 247.184 14.6053ZM287.013 20.8421H270.124C270.437 22.4474 271.206 23.7632 272.431 24.7895C273.682 25.7895 275.155 26.2895 276.849 26.2895C279.142 26.2895 280.941 25.4342 282.244 23.7237L286.231 24.9474C285.293 26.5526 283.99 27.8158 282.322 28.7368C280.68 29.6579 278.856 30.1184 276.849 30.1184C273.721 30.1184 271.128 29.0921 269.069 27.0395C266.984 24.9868 265.941 22.4211 265.941 19.3421C265.941 16.2895 266.945 13.7237 268.952 11.6447C270.984 9.5921 273.513 8.56579 276.536 8.56579C279.559 8.56579 282.061 9.5921 284.042 11.6447C286.075 13.6974 287.091 16.2632 287.091 19.3421C287.091 19.4474 287.065 19.9474 287.013 20.8421ZM270.164 17.5658H282.908C282.543 16.0395 281.762 14.8026 280.563 13.8553C279.364 12.8816 277.982 12.3947 276.419 12.3947C274.933 12.3947 273.604 12.8816 272.431 13.8553C271.284 14.8026 270.528 16.0395 270.164 17.5658ZM294.768 12.0789V9.07895H290.702V29.6053H294.768V18.1579C294.768 16.6053 295.289 15.3421 296.331 14.3684C297.374 13.3421 298.677 12.8289 300.241 12.8289C300.945 12.8289 301.531 12.9342 302 13.1447V8.56579C298.716 8.56579 296.305 9.73684 294.768 12.0789Z" fill="#DB84A4"/>
</svg>
