<svg width="20" height="21" viewBox="0 0 20 21" fill="none" xmlns="http://www.w3.org/2000/svg">
<path d="M5 3H3C2.46957 3 1.96086 3.21071 1.58579 3.58579C1.21071 3.96086 1 4.46957 1 5V17C1 17.5304 1.21071 18.0391 1.58579 18.4142C1.96086 18.7893 2.46957 19 3 19H8.697" stroke="#DB84A4" stroke-width="2" stroke-linecap="round" stroke-linejoin="round"/>
<path d="M15 12V16H19" stroke="#DB84A4" stroke-width="2" stroke-linecap="round" stroke-linejoin="round"/>
<path d="M15 9V5C15 4.46957 14.7893 3.96086 14.4142 3.58579C14.0391 3.21071 13.5304 3 13 3H11" stroke="#DB84A4" stroke-width="2" stroke-linecap="round" stroke-linejoin="round"/>
<path d="M9 1H7C5.89543 1 5 1.89543 5 3C5 4.10457 5.89543 5 7 5H9C10.1046 5 11 4.10457 11 3C11 1.89543 10.1046 1 9 1Z" stroke="#DB84A4" stroke-width="2" stroke-linecap="round" stroke-linejoin="round"/>
<path d="M15 20C17.2091 20 19 18.2091 19 16C19 13.7909 17.2091 12 15 12C12.7909 12 11 13.7909 11 16C11 18.2091 12.7909 20 15 20Z" stroke="#DB84A4" stroke-width="2" stroke-linecap="round" stroke-linejoin="round"/>
<path d="M5 9H9" stroke="#DB84A4" stroke-width="2" stroke-linecap="round" stroke-linejoin="round"/>
<path d="M5 13H8" stroke="#DB84A4" stroke-width="2" stroke-linecap="round" stroke-linejoin="round"/>
</svg>
